<?xml version="1.0" encoding="UTF-8"?>
<svg id="Layer_2" data-name="Layer 2" xmlns="http://www.w3.org/2000/svg" viewBox="0 0 299.54 88.17">
  <defs>
    <style>
      .cls-1 {
        fill: #ffb752;
      }

      .cls-1, .cls-2, .cls-3 {
        fill-rule: evenodd;
      }

      .cls-1, .cls-2, .cls-3, .cls-4 {
        stroke-width: 0px;
      }

      .cls-2, .cls-4 {
        fill: #f6f6f6;
      }

      .cls-3 {
        fill: rgba(246, 246, 246, .5);
      }
    </style>
  </defs>
  <g id="Layer_1-2" data-name="Layer 1">
    <g id="Logo-Colored">
      <g id="V2---expanded">
        <path class="cls-3" d="m33.32,77.84c3.46-2.82,5.92-6.83,6.76-11.4.84,4.57,3.29,8.58,6.76,11.4-1.77,2.57-4.08,4.73-6.76,6.32-2.69-1.59-5-3.75-6.76-6.32Z"/>
        <path class="cls-3" d="m73.83,37.33c2.56,1.76,4.72,4.07,6.31,6.76-1.58,2.69-3.75,4.99-6.31,6.76-2.83-3.46-6.84-5.92-11.4-6.76,4.56-.84,8.57-3.3,11.4-6.76Z"/>
        <path class="cls-3" d="m46.83,10.33c-3.46,2.82-5.92,6.83-6.76,11.4-.84-4.57-3.29-8.58-6.76-11.4,1.77-2.57,4.06-4.73,6.76-6.32,2.68,1.59,4.99,3.75,6.76,6.32Z"/>
        <path class="cls-3" d="m6.32,50.84c-2.57-1.76-4.73-4.07-6.32-6.76,1.58-2.69,3.75-5,6.32-6.76,2.82,3.46,6.83,5.92,11.4,6.76-4.57.84-8.58,3.3-11.4,6.76Z"/>
        <path class="cls-2" d="m57.38,16.91c3.28-1.01,6.79-1.09,10.11-.24.85,3.32.77,6.83-.24,10.11-2.43-1.16-5.14-1.84-7.99-1.88-.05-2.86-.71-5.56-1.88-7.99Zm-16.75,7.99c-.08,0-.16,0-.24,0v-.23c.16-5.56,2.77-10.51,6.79-13.81.08-.07.16-.13.24-.2.09-.07.17-.13.25-.19.59-.45,1.2-.86,1.85-1.24,2.94,1.75,5.37,4.28,6.97,7.32.06.09.1.19.15.28.05.09.09.19.15.28,1.14,2.36,1.81,5,1.85,7.79-1.89.03-3.71.34-5.45.88-.1.03-.2.06-.29.1-.1.03-.2.07-.31.1-1.08.38-2.09.85-3.07,1.4-2.47-1.4-5.28-2.26-8.26-2.45-.2-.01-.42-.02-.62-.03Zm18.63,18.63c-.01-.21-.02-.42-.03-.62-.18-2.99-1.04-5.8-2.45-8.26.55-.97,1.02-2,1.4-3.07.03-.1.07-.2.1-.3.03-.1.07-.2.09-.3.54-1.72.85-3.55.88-5.45,2.78.05,5.43.71,7.79,1.86.1.05.19.09.28.14.1.05.19.1.28.15,3.03,1.61,5.57,4.03,7.32,6.98-.38.64-.79,1.25-1.25,1.84-.07.08-.14.17-.19.25-.07.08-.14.16-.2.25-3.31,4.02-8.25,6.62-13.81,6.78-.07,0-.15,0-.23,0v-.24Zm-1.54-12.54c-.03.1-.07.2-.1.3-.33.95-.74,1.86-1.21,2.73-1.57-2.55-3.72-4.7-6.27-6.27.87-.47,1.79-.87,2.73-1.2.1-.04.2-.07.31-.1.1-.03.2-.06.31-.1,1.63-.5,3.36-.79,5.15-.82-.02,1.79-.31,3.53-.82,5.16-.03.1-.07.2-.09.3Zm-17.33-5.47c3.26.06,6.32.95,8.97,2.48,2.81,1.63,5.16,3.98,6.79,6.8,1.53,2.65,2.43,5.7,2.48,8.96-3.26-.06-6.32-.95-8.95-2.48-2.82-1.63-5.17-3.98-6.8-6.8-1.53-2.65-2.42-5.7-2.48-8.96Z"/>
        <path class="cls-1" d="m67.26,61.39c1.01,3.28,1.09,6.79.24,10.11-3.32.85-6.83.77-10.11-.24,1.17-2.42,1.83-5.13,1.88-7.99,2.85-.05,5.56-.72,7.99-1.88Zm-8.97-4.5c-.03-.1-.07-.2-.1-.3-.38-1.07-.85-2.1-1.4-3.07,1.4-2.47,2.26-5.27,2.45-8.26.01-.21.02-.42.03-.62v-.24c.08,0,.15,0,.23,0,5.56.16,10.52,2.77,13.81,6.78.07.08.14.16.2.25.07.08.12.17.19.25.45.59.86,1.2,1.25,1.84-1.75,2.95-4.29,5.37-7.32,6.98-.09.05-.18.1-.28.15-.09.05-.18.1-.28.14-2.35,1.15-5,1.81-7.79,1.86-.03-1.89-.34-3.72-.88-5.45-.02-.1-.06-.2-.09-.3Zm-10.87,20.61c-.08-.07-.16-.13-.24-.2-4.02-3.3-6.63-8.25-6.79-13.81v-.23c.08,0,.15,0,.23,0,.22,0,.42-.02.62-.03,3-.18,5.81-1.05,8.28-2.45.97.55,1.99,1.02,3.07,1.4.1.04.2.07.31.1.09.03.19.07.29.1,1.73.54,3.55.85,5.45.88-.03,2.79-.7,5.43-1.85,7.79-.06.1-.1.19-.15.28-.05.1-.1.19-.15.28-1.61,3.03-4.03,5.57-6.97,7.32-.65-.38-1.26-.79-1.85-1.24-.08-.06-.16-.13-.25-.19Zm5.75-15.78c-.1-.03-.2-.07-.31-.1-.94-.33-1.86-.73-2.73-1.2,2.55-1.57,4.7-3.73,6.27-6.28.48.87.88,1.78,1.21,2.73.03.1.07.2.1.3.02.1.06.2.09.3.51,1.64.79,3.37.82,5.16-1.79-.03-3.52-.31-5.15-.82-.1-.03-.2-.06-.31-.1Zm-3.82-1.57c-2.65,1.53-5.71,2.43-8.97,2.48.06-3.26.95-6.32,2.48-8.96,1.63-2.82,3.98-5.16,6.8-6.8,2.64-1.53,5.69-2.43,8.95-2.48-.05,3.26-.95,6.32-2.48,8.96-1.63,2.82-3.98,5.17-6.79,6.8Z"/>
        <path class="cls-2" d="m22.77,71.26c-3.28,1.01-6.79,1.09-10.11.24-.85-3.32-.77-6.83.24-10.11,2.42,1.17,5.13,1.84,7.99,1.88.05,2.86.71,5.56,1.88,7.99Zm.75.09c-.05-.09-.1-.19-.15-.28-1.14-2.36-1.81-5-1.86-7.79,1.9-.03,3.72-.34,5.45-.88.1-.03.2-.07.31-.1.1-.03.2-.07.31-.1,1.06-.38,2.09-.85,3.07-1.4,2.47,1.4,5.28,2.26,8.26,2.45.2.01.42.02.62.03.08,0,.16,0,.24,0,0,.08,0,.15-.01.23-.16,5.56-2.76,10.51-6.78,13.81-.08.07-.16.13-.25.2-.08.07-.16.13-.25.19-.58.45-1.2.86-1.83,1.24-2.94-1.74-5.37-4.28-6.97-7.32-.06-.09-.1-.19-.15-.28Zm-10.71-10.7c-.09-.05-.18-.1-.28-.15-3.03-1.61-5.57-4.03-7.31-6.98.39-.64.79-1.25,1.25-1.84.07-.08.12-.17.19-.25.07-.08.14-.16.19-.25,3.31-4.02,8.25-6.63,13.81-6.79.08,0,.16,0,.24,0v.23c.01.21.01.42.03.62.18,2.99,1.04,5.8,2.45,8.27-.55.97-1.03,2-1.4,3.07-.03.1-.07.2-.1.3-.03.1-.07.2-.1.3-.54,1.72-.85,3.55-.87,5.45-2.8-.05-5.43-.71-7.8-1.86-.09-.05-.18-.09-.28-.14Zm14.17,1.08c-.1.03-.2.06-.31.1-1.63.5-3.36.79-5.16.82.03-1.79.32-3.52.83-5.16.02-.1.06-.2.09-.3.03-.1.07-.2.1-.3.33-.95.74-1.86,1.2-2.73,1.57,2.55,3.74,4.7,6.28,6.28-.87.47-1.79.87-2.74,1.2-.1.03-.19.07-.29.1Zm-2.98-8.36c-1.54-2.65-2.43-5.7-2.49-8.96,3.26.05,6.32.95,8.97,2.48,2.82,1.63,5.16,3.98,6.79,6.8,1.54,2.65,2.43,5.7,2.49,8.96-3.26-.05-6.32-.95-8.97-2.48-2.82-1.63-5.16-3.98-6.79-6.8Z"/>
        <path class="cls-1" d="m6.65,36.73c-.07-.08-.12-.17-.19-.25-.45-.59-.86-1.2-1.25-1.84,1.74-2.95,4.28-5.37,7.31-6.98.1-.05.19-.1.28-.15.1-.05.19-.1.28-.14,2.37-1.15,5-1.81,7.8-1.86.02,1.9.33,3.72.87,5.45.03.1.07.2.1.3.03.1.07.2.1.3.37,1.07.85,2.1,1.4,3.07-1.4,2.47-2.26,5.28-2.45,8.27-.02.21-.02.42-.03.62v.23c-.08,0-.16,0-.24,0-5.56-.16-10.51-2.77-13.81-6.78-.06-.08-.12-.16-.19-.25Zm20.62-10.86c-.1-.03-.2-.07-.31-.1-1.72-.54-3.54-.85-5.45-.88.05-2.79.71-5.43,1.86-7.79.05-.1.09-.19.15-.28.05-.09.09-.19.15-.28,1.6-3.04,4.03-5.57,6.97-7.32.63.38,1.26.79,1.83,1.24.09.06.17.13.25.19.09.07.17.13.25.2,4.02,3.3,6.62,8.25,6.78,13.81.01.08.01.15.01.23-.08,0-.16,0-.24,0-.2,0-.42.02-.62.03-2.99.18-5.8,1.05-8.26,2.45-.97-.55-2-1.02-3.07-1.4-.1-.04-.2-.07-.31-.1Zm-4.83,5.12c-.03-.1-.07-.2-.09-.3-.51-1.64-.79-3.37-.83-5.16,1.8.03,3.53.32,5.16.82.1.03.2.06.31.1.1.03.2.07.29.1.95.33,1.87.73,2.74,1.2-2.55,1.57-4.71,3.73-6.28,6.27-.46-.87-.87-1.78-1.2-2.73-.03-.1-.07-.2-.1-.3Zm1.57,3.82c1.63-2.82,3.97-5.17,6.79-6.8,2.65-1.53,5.71-2.43,8.97-2.48-.06,3.26-.95,6.32-2.49,8.96-1.63,2.82-3.97,5.17-6.79,6.8-2.65,1.53-5.71,2.43-8.97,2.48.06-3.26.95-6.32,2.49-8.96Zm-11.11-8.03c-1.01-3.28-1.09-6.79-.24-10.11,3.32-.85,6.83-.77,10.11.24-1.17,2.42-1.83,5.13-1.88,7.99-2.86.05-5.57.72-7.99,1.88Z"/>
      </g>
      <g>
        <g>
          <path class="cls-4" d="m110.9,45.11c-3.67,0-6.61-1.09-8.83-3.27-2.22-2.18-3.33-5.1-3.33-8.77V13.26c0-3.63,1.11-6.52,3.33-8.68,2.22-2.16,5.17-3.24,8.83-3.24s6.67,1.08,8.89,3.24c2.22,2.16,3.33,5.05,3.33,8.68v.67c0,.2-.07.38-.21.52-.14.14-.32.21-.52.21l-7.15.31c-.49,0-.73-.22-.73-.67v-1.59c0-1.18-.33-2.14-.98-2.87-.65-.73-1.53-1.1-2.63-1.1s-1.92.37-2.57,1.1c-.65.73-.98,1.69-.98,2.87v21.09c0,1.18.33,2.13.98,2.84.65.71,1.51,1.07,2.57,1.07s1.98-.36,2.63-1.07c.65-.71.98-1.66.98-2.84v-1.65c0-.2.07-.38.21-.52.14-.14.32-.21.52-.21l7.15.31c.2,0,.38.07.52.21.14.14.21.32.21.52v.61c0,3.67-1.12,6.59-3.36,8.77-2.24,2.18-5.2,3.27-8.86,3.27Z"/>
          <path class="cls-4" d="m141.96,12.71c2.77,0,4.85.92,6.24,2.75,1.39,1.83,2.08,4.4,2.08,7.7v20.72c0,.2-.07.38-.21.52-.14.14-.32.21-.52.21h-7.15c-.2,0-.38-.07-.52-.21-.14-.14-.21-.32-.21-.52v-20.05c0-1.18-.23-2.1-.7-2.75-.47-.65-1.15-.98-2.05-.98s-1.66.34-2.17,1.01c-.51.67-.76,1.62-.76,2.84v19.93c0,.2-.07.38-.21.52-.14.14-.32.21-.52.21h-7.15c-.2,0-.38-.07-.52-.21-.14-.14-.21-.32-.21-.52V2.57c0-.2.07-.38.21-.52.14-.14.32-.21.52-.21h7.15c.2,0,.38.07.52.21.14.14.21.32.21.52v12.53c0,.12.05.18.15.18s.23-.08.4-.24c1.3-1.55,3.12-2.32,5.44-2.32Z"/>
          <path class="cls-4" d="m166.04,12.71c3.46,0,6.28.94,8.44,2.81,2.16,1.87,3.24,4.34,3.24,7.4v20.97c0,.2-.07.38-.21.52-.14.14-.32.21-.52.21h-7.15c-.2,0-.38-.07-.52-.21-.14-.14-.21-.32-.21-.52v-1.34c0-.12-.04-.2-.12-.24-.08-.04-.16,0-.24.12-1.34,1.71-3.42,2.61-6.24,2.69-2.36,0-4.41-.65-6.14-1.96-1.73-1.3-2.6-3.79-2.6-7.46s1.05-6.4,3.15-7.82c2.1-1.43,5.12-2.14,9.08-2.14h2.81c.2,0,.31-.1.31-.31v-1.53c0-1.1-.3-2.01-.89-2.72-.59-.71-1.33-1.07-2.23-1.07-.69,0-1.27.21-1.74.64-.47.43-.76,1.03-.89,1.8-.04.49-.31.73-.79.73l-7.34-.06c-.49,0-.73-.24-.73-.73.2-2.97,1.37-5.35,3.48-7.12,2.12-1.77,4.81-2.66,8.07-2.66Zm-.61,25.74c.94,0,1.78-.32,2.54-.95.75-.63,1.13-1.48,1.13-2.54v-2.87c0-.2-.1-.31-.31-.31h-2.51c-1.1,0-1.99.32-2.66.95-.67.63-1.01,1.5-1.01,2.6,0,1.02.25,1.79.76,2.32.51.53,1.19.79,2.05.79Z"/>
          <path class="cls-4" d="m196.54,12.71c2.77,0,4.85.92,6.24,2.75,1.39,1.83,2.08,4.4,2.08,7.7v20.72c0,.2-.07.38-.21.52-.14.14-.32.21-.52.21h-7.15c-.2,0-.38-.07-.52-.21-.14-.14-.21-.32-.21-.52v-20.05c0-1.18-.23-2.1-.7-2.75-.47-.65-1.15-.98-2.05-.98s-1.66.34-2.17,1.01c-.51.67-.76,1.62-.76,2.84v19.93c0,.2-.07.38-.21.52-.14.14-.32.21-.52.21h-7.15c-.2,0-.38-.07-.52-.21-.14-.14-.21-.32-.21-.52V13.94c0-.2.07-.38.21-.52.14-.14.32-.21.52-.21h7.15c.2,0,.38.07.52.21.14.14.21.32.21.52v1.16c0,.12.05.18.15.18s.23-.08.4-.24c1.3-1.55,3.12-2.32,5.44-2.32Z"/>
          <path class="cls-4" d="m223.26,13.94c0-.2.07-.38.21-.52.14-.14.32-.21.52-.21h7.15c.2,0,.38.07.52.21.14.14.21.32.21.52v29.22c0,4.52-1.07,8.01-3.21,10.45s-5.98,3.67-11.52,3.67c-1.1,0-1.96-.02-2.57-.06-.49-.04-.73-.31-.73-.79v-5.99c0-.53.26-.75.79-.67,2.4.08,4.23-.15,5.47-.7,1.24-.55,2.08-1.38,2.51-2.48.43-1.1.64-2.55.64-4.34,0-.12-.04-.18-.12-.18s-.16.06-.24.18c-.73.98-1.62,1.66-2.66,2.05-1.04.39-2.05.58-3.03.58-2.81,0-4.91-.91-6.3-2.72-1.39-1.81-2.08-4.33-2.08-7.55v-11.61c0-3.3.7-5.84,2.11-7.61,1.41-1.77,3.49-2.66,6.27-2.66,2.49,0,4.38.92,5.68,2.75.08.12.16.16.24.12s.12-.12.12-.24v-1.41Zm-2.93,23.47c.86,0,1.56-.33,2.11-.98s.83-1.49.83-2.51v-10.33c0-1.02-.28-1.85-.83-2.51-.55-.65-1.25-.98-2.11-.98s-1.55.33-2.08.98c-.53.65-.79,1.49-.79,2.51v10.33c0,1.02.26,1.85.79,2.51.53.65,1.22.98,2.08.98Z"/>
          <path class="cls-4" d="m240.56,9.66c-1.39,0-2.54-.46-3.45-1.38-.92-.92-1.38-2.07-1.38-3.45s.45-2.59,1.34-3.48c.9-.9,2.06-1.34,3.48-1.34s2.58.45,3.45,1.34c.88.9,1.31,2.06,1.31,3.48s-.45,2.54-1.34,3.45c-.9.92-2.04,1.38-3.42,1.38Zm-3.48,34.97c-.2,0-.38-.07-.52-.21-.14-.14-.21-.32-.21-.52V13.94c0-.2.07-.38.21-.52.14-.14.32-.21.52-.21h7.15c.2,0,.38.07.52.21.14.14.21.32.21.52v29.95c0,.2-.07.38-.21.52-.14.14-.32.21-.52.21h-7.15Z"/>
          <path class="cls-4" d="m264.21,12.71c2.77,0,4.85.92,6.24,2.75,1.39,1.83,2.08,4.4,2.08,7.7v20.72c0,.2-.07.38-.21.52-.14.14-.32.21-.52.21h-7.15c-.2,0-.38-.07-.52-.21-.14-.14-.21-.32-.21-.52v-20.05c0-1.18-.23-2.1-.7-2.75-.47-.65-1.15-.98-2.05-.98s-1.66.34-2.17,1.01c-.51.67-.76,1.62-.76,2.84v19.93c0,.2-.07.38-.21.52-.14.14-.32.21-.52.21h-7.15c-.2,0-.38-.07-.52-.21-.14-.14-.21-.32-.21-.52V13.94c0-.2.07-.38.21-.52.14-.14.32-.21.52-.21h7.15c.2,0,.38.07.52.21.14.14.21.32.21.52v1.16c0,.12.05.18.15.18s.23-.08.4-.24c1.3-1.55,3.12-2.32,5.44-2.32Z"/>
          <path class="cls-4" d="m290.93,13.94c0-.2.07-.38.21-.52.14-.14.32-.21.52-.21h7.15c.2,0,.38.07.52.21.14.14.21.32.21.52v29.22c0,4.52-1.07,8.01-3.21,10.45s-5.98,3.67-11.52,3.67c-1.1,0-1.96-.02-2.57-.06-.49-.04-.73-.31-.73-.79v-5.99c0-.53.26-.75.79-.67,2.4.08,4.23-.15,5.47-.7,1.24-.55,2.08-1.38,2.51-2.48s.64-2.55.64-4.34c0-.12-.04-.18-.12-.18s-.16.06-.24.18c-.73.98-1.62,1.66-2.66,2.05-1.04.39-2.05.58-3.03.58-2.81,0-4.91-.91-6.3-2.72-1.39-1.81-2.08-4.33-2.08-7.55v-11.61c0-3.3.7-5.84,2.11-7.61,1.41-1.77,3.49-2.66,6.27-2.66,2.49,0,4.38.92,5.68,2.75.08.12.16.16.24.12s.12-.12.12-.24v-1.41Zm-2.93,23.47c.86,0,1.56-.33,2.11-.98s.83-1.49.83-2.51v-10.33c0-1.02-.28-1.85-.83-2.51-.55-.65-1.25-.98-2.11-.98s-1.55.33-2.08.98c-.53.65-.79,1.49-.79,2.51v10.33c0,1.02.26,1.85.79,2.51.53.65,1.22.98,2.08.98Z"/>
        </g>
        <g>
          <path class="cls-4" d="m103.71,87.74c-.29,0-.47-.16-.54-.49l-3.1-36.95c0-.4.18-.6.54-.6h2.99c.33,0,.49.16.49.49l1.96,30.37c.04.07.07.11.11.11s.07-.04.11-.11l9.4-30.37c.07-.33.27-.49.6-.49h2.88c.36,0,.49.2.38.6l-12.17,36.95c-.11.33-.33.49-.65.49h-2.99Z"/>
          <path class="cls-4" d="m126.26,55.25c-.87,0-1.54-.29-2.01-.87-.47-.58-.67-1.3-.6-2.17.14-.91.52-1.64,1.14-2.2.62-.56,1.36-.84,2.23-.84.76,0,1.38.24,1.85.71.47.47.71,1.09.71,1.85,0,1.01-.32,1.86-.95,2.53-.63.67-1.42,1.01-2.36,1.01Zm-5.32,32.49c-.36,0-.51-.18-.43-.54l3.21-26.41c.04-.15.11-.27.22-.38.11-.11.24-.16.38-.16h2.72c.36,0,.51.18.43.54l-3.21,26.41c-.07.36-.27.54-.6.54h-2.72Z"/>
          <path class="cls-4" d="m148.43,74.92c-.07.36-.27.54-.6.54h-12.01c-.07,0-.14.02-.19.05-.05.04-.08.09-.08.16l-.49,3.97c-.04.18-.05.47-.05.87,0,1.27.36,2.3,1.09,3.1.72.8,1.67,1.2,2.83,1.2s2.12-.35,2.99-1.06c.87-.71,1.5-1.62,1.9-2.74.18-.33.4-.49.65-.49l2.61.11c.14,0,.26.05.35.16.09.11.1.25.03.43-.51,2.14-1.55,3.83-3.12,5.08-1.58,1.25-3.52,1.87-5.84,1.87s-4.01-.63-5.3-1.9c-1.29-1.27-1.93-2.97-1.93-5.11,0-.58.02-1.01.05-1.3l1.41-11.74c.29-2.46,1.29-4.46,2.99-6,1.7-1.54,3.8-2.31,6.3-2.31,2.28,0,4.08.63,5.38,1.9,1.3,1.27,1.96,2.97,1.96,5.11,0,.29-.04.72-.11,1.3l-.82,6.79Zm-6.85-11.74c-1.34,0-2.48.48-3.42,1.44-.94.96-1.5,2.22-1.68,3.78l-.49,3.64c0,.15.07.22.22.22h8.64c.14,0,.22-.07.22-.22l.49-3.64c.04-.22.05-.51.05-.87,0-1.3-.36-2.35-1.09-3.15-.73-.8-1.7-1.2-2.93-1.2Z"/>
          <path class="cls-4" d="m156.58,87.74c-.33,0-.49-.16-.49-.49l-2.34-26.41c0-.4.18-.6.54-.6h2.55c.36,0,.54.16.54.49l1.25,20.76c0,.07.03.11.08.11s.1-.04.14-.11l6.41-20.76c.11-.33.33-.49.65-.49h2.39c.33,0,.49.16.49.49l1.36,20.76c.04.07.07.11.11.11s.07-.04.11-.11l6.47-20.76c.07-.33.29-.49.65-.49l2.5.05c.36,0,.49.2.38.6l-8.8,26.35c-.11.33-.33.49-.65.49h-2.66c-.36,0-.54-.16-.54-.49l-1.47-19.89c0-.11-.02-.16-.05-.16s-.09.05-.16.16l-6.14,19.89c-.11.33-.33.49-.65.49h-2.66Z"/>
          <path class="cls-4" d="m188.53,88.01c-2.25,0-4-.54-5.27-1.63-1.27-1.09-1.9-2.55-1.9-4.4,0-.47.02-.82.05-1.03l.05-.38c0-.15.05-.27.16-.38.11-.11.25-.16.43-.16h2.5c.33,0,.49.18.49.54l-.05.33c-.15,1.16.14,2.14.87,2.93.72.8,1.76,1.2,3.1,1.2s2.52-.46,3.42-1.39c.91-.92,1.36-2.07,1.36-3.45,0-.8-.22-1.48-.65-2.04-.43-.56-.92-1-1.47-1.3-.54-.31-1.43-.75-2.66-1.33-1.16-.51-2.13-1.01-2.91-1.52-.78-.51-1.45-1.2-2.01-2.06-.56-.87-.84-1.96-.84-3.26,0-.51.02-.91.05-1.2.29-2.32,1.21-4.15,2.77-5.49,1.56-1.34,3.51-2.01,5.87-2.01,2.17,0,3.87.58,5.08,1.74,1.21,1.16,1.82,2.72,1.82,4.67,0,.51-.02.89-.05,1.14v.16c-.07.36-.27.54-.6.54h-2.45c-.36,0-.51-.18-.43-.54v-.33c.04-.15.05-.36.05-.65,0-1.05-.34-1.91-1.03-2.58-.69-.67-1.61-1.01-2.77-1.01-1.23,0-2.27.41-3.12,1.22-.85.82-1.37,1.82-1.55,3.02-.11.87.03,1.6.41,2.2.38.6.88,1.1,1.49,1.49.62.4,1.5.85,2.66,1.36,1.27.58,2.3,1.13,3.1,1.66.8.53,1.49,1.23,2.09,2.12.6.89.9,1.98.9,3.29,0,2.57-.83,4.64-2.5,6.19-1.67,1.56-3.82,2.34-6.47,2.34Z"/>
        </g>
      </g>
    </g>
  </g>
</svg>